<?xml version="1.0" ?>
<!-- Uploaded to: SVG Repo, www.svgrepo.com, Generator: SVG Repo Mixer Tools -->
<svg width="800px" height="800px" viewBox="0 0 256 256" data-name="Layer 1" id="Layer_1" xmlns="http://www.w3.org/2000/svg">
<defs>
<style>.cls-1{fill:#84d0f7;}.cls-2{fill:#2d2d2d;}.cls-3{fill:#050505;}.cls-3,.cls-7{opacity:0.2;}.cls-4{fill:#aa392d;}.cls-5{fill:#7c211a;}.cls-6{fill:#eab198;}.cls-8{opacity:0.3;}</style>
</defs>
<g data-name="Female 1" id="Female_1">
<path class="cls-1" d="M250,127.7a121.69,121.69,0,0,1-37.81,88.21H44.71a103.52,103.52,0,0,1-9-8.93l-.82-1c-7-8.33-29.68-37.88-28.5-78.31C8,71.68,55.07,5.87,128.18,5.87A121.82,121.82,0,0,1,250,127.7Z" id="Wallpaper"/>
<circle class="cls-2" cx="127.97" cy="40.84" id="Chignon" r="22.31"/>
<circle class="cls-3" cx="127.97" cy="40.84" id="ChignonShadow" r="22.31"/>
<path class="cls-4" d="M221.46,206a118.76,118.76,0,0,1-9.27,9.89,121.78,121.78,0,0,1-84,33.6c-25.94,0-47.6-9-63.46-18.77a142.71,142.71,0,0,1-20-14.83,99.86,99.86,0,0,1-9-8.94c-.24-.27-.53-.59-.83-1a111.85,111.85,0,0,1,25.28-19,131.27,131.27,0,0,1,27.67-11.41q20.1,17.76,40.15,35.5,20.3-17.76,40.55-35.5c.28.09.57.16.85.24a.89.89,0,0,0,.29.09,134.45,134.45,0,0,1,26.49,11A113.7,113.7,0,0,1,221.46,206Z" id="Sweater"/>
<path class="cls-5" d="M168.51,175.64Q148.25,193.4,128,211.14q-20.05-17.76-40.15-35.5A26.74,26.74,0,0,1,94.1,174q16.92,14.5,33.84,29,17.13-14.53,34.27-29A28.65,28.65,0,0,1,168.51,175.64Z" id="Neckband"/>
<path class="cls-6" d="M162.21,174q-17.13,14.5-34.27,29Q111,188.5,94.1,174c1.45-.35,3-.68,4.5-1s2.81-.55,4.17-.77a38,38,0,0,0,1.66-5.17c.22-1,.4-1.89.55-2.77a41.51,41.51,0,0,0,4.34,3.1,46.93,46.93,0,0,0,4.48,2.45,36.69,36.69,0,0,0,13.53,3.25,37.22,37.22,0,0,0,15-3.53,55.31,55.31,0,0,0,4.93-2.81c1.54-1,2.81-2,3.77-2.76.29,1.29.64,2.65,1.08,4.08s.9,2.87,1.4,4.16c1.19.2,2.39.42,3.64.68Q159.78,173.4,162.21,174Z" id="Neck"/>
<path class="cls-7" d="M169.65,176c-.84.94-1.69,1.87-2.57,2.74a55,55,0,0,1-6.27,5.46,42.66,42.66,0,0,1-9.49,5.37,34.67,34.67,0,0,1-6.61,2,29.15,29.15,0,0,1-6.05.52,31.93,31.93,0,0,1-11.6-2.41l-.66-.26a42,42,0,0,1-8.28-4.74,60.1,60.1,0,0,1-12.68-12.83c-.57-.76-1.12-1.55-1.66-2.37.1-.35.21-.7.3-1.07a35.34,35.34,0,0,0,.9-4.06c.59.49,1.19.95,1.8,1.39a42.56,42.56,0,0,0,5.11,3.2c.17.08.35.19.52.28l.64.33.75.35.43.2.38.17.46.2.44.18a.83.83,0,0,0,.22.08,3.85,3.85,0,0,0,.52.22l.68.25a0,0,0,0,1,0,0l.73.24.15.06.53.16c.24.09.5.17.76.24a2.1,2.1,0,0,1,.36.09l.7.19a28.59,28.59,0,0,0,4.54.79,2.36,2.36,0,0,0,.48.05,1.62,1.62,0,0,0,.31,0c.22,0,.41,0,.63,0s.35,0,.55.05h1.18a31.37,31.37,0,0,0,9.72-1.6.16.16,0,0,0,.06,0,2.8,2.8,0,0,0,.38-.13c.65-.19,1.29-.46,1.95-.7l.17-.09c.29-.11.55-.24.84-.35l.22-.09a43.86,43.86,0,0,0,8.24-4.86l1.62-1.25c.31,1.36.68,2.83,1.14,4.36.42,1.38.88,2.68,1.34,3.88l1.1.2,1.09.2,1.08.19c.26.07.53.11.81.18a5,5,0,0,1,.53.11c1.36.28,2.72.57,4.05.9,2.13.5,4.21,1.05,6.3,1.64Z" id="NeckShadow"/>
<path class="cls-6" d="M186.2,119.75c-.16,5.19-3.47,10.44-7.18,12.37a7.27,7.27,0,0,1-1.57.61l-.12,0a4.9,4.9,0,0,1-2.05.06,5.18,5.18,0,0,1-2-.87l-.28-.21a7.82,7.82,0,0,1-1.12-1.11c-2.67-3.22-3.76-9.27-2-14.09a14.64,14.64,0,0,1,3.23-5,8.93,8.93,0,0,1,4.42-2.59,5.91,5.91,0,0,1,2.37,0C184.3,109.76,186.33,115.41,186.2,119.75Z" id="RightEar"/>
<path class="cls-8" d="M186.2,119.75c-.17,5.19-3.48,10.44-7.19,12.39a8.19,8.19,0,0,1-1.56.59l-.13,0a5.39,5.39,0,0,1-2,.07,5.26,5.26,0,0,1-2-.88l-.28-.22a7.26,7.26,0,0,1-1.12-1.1c-2.68-3.22-3.77-9.27-2-14.1a14.52,14.52,0,0,1,3.22-5,10,10,0,0,1,3.14-2.19,6.43,6.43,0,0,1,1.29-.4,5.9,5.9,0,0,1,2.37,0,2.25,2.25,0,0,1,.35.09C184.4,110.06,186.33,115.54,186.2,119.75Z" id="RightEarShadow"/>
<path class="cls-6" d="M84.42,130.62a7.53,7.53,0,0,1-1.4,1.32,5.35,5.35,0,0,1-2,.88,5.08,5.08,0,0,1-2-.07l-.12,0a7.27,7.27,0,0,1-1.57-.61c-3.71-1.93-7-7.18-7.18-12.37-.13-4.34,1.9-10,6.31-10.88,2.51-.5,4.9.71,6.79,2.61a14.64,14.64,0,0,1,3.23,5C88.19,121.35,87.09,127.4,84.42,130.62Z" id="LeftHear"/>
<path class="cls-6" d="M177.52,108.89c0,.4,0,.81-.07,1.23a78.87,78.87,0,0,1-4.49,21.6c-4.65,13.09-12.48,24.69-21.89,32.26l-1.62,1.25a43.86,43.86,0,0,1-8.24,4.86l-.22.09c-.29.11-.55.24-.84.35l-.17.09c-.66.24-1.3.51-1.95.7a2.8,2.8,0,0,1-.38.13.16.16,0,0,1-.06,0,31.37,31.37,0,0,1-9.72,1.6h-1.18c-.2,0-.37,0-.55-.05s-.41,0-.63,0a1.62,1.62,0,0,1-.31,0,2.36,2.36,0,0,1-.48-.05,28.59,28.59,0,0,1-4.54-.79l-.7-.19a2.1,2.1,0,0,0-.36-.09c-.26-.07-.52-.15-.76-.24l-.53-.16-.15-.06-.73-.24a0,0,0,0,0,0,0l-.68-.25a3.85,3.85,0,0,1-.52-.22.83.83,0,0,1-.22-.08l-.44-.18-.46-.2-.38-.17-.43-.2-.75-.35-.64-.33c-.17-.09-.35-.2-.52-.28a42.56,42.56,0,0,1-5.11-3.2c-.61-.44-1.21-.9-1.8-1.39a45.76,45.76,0,0,1-4.43-4,52.45,52.45,0,0,1-4.14-4.51v0a78.39,78.39,0,0,1-13.64-25.05A80.66,80.66,0,0,1,79,112.49c-.09-1-.15-2.06-.19-3.09a66.94,66.94,0,0,1,.32-10.88c.16-1.47.38-2.91.64-4.36A53.68,53.68,0,0,1,81,88.83,72.7,72.7,0,0,1,85.6,76.24C89.83,67.36,96,59,103.58,53.06c7-5.41,15.17-8.83,24.43-8.85,14.88-.07,27.21,8.68,35.83,20.45a71.61,71.61,0,0,1,8.61,15.49c.57,1.38,1.1,2.76,1.58,4.16a69.49,69.49,0,0,1,2.57,9.85c.24,1.4.46,2.83.61,4.25A70.47,70.47,0,0,1,177.52,108.89Z" id="Head"/>
<path class="cls-7" d="M162,112.1c-4.95-.14-12.8-4.32-17.17-7.28C132,96.13,122.06,79.6,114.89,79.27a5.89,5.89,0,0,0-2.26.33c-3.24,1.2-4.34,5.44-5.5,9.54-1.43,5.06-2.37,8.33-3,10.43-.07-5.76-.18-12,3.31-21,1.05-2.65,2.35-5.37,5-6.34,1.27-.48,5.43-1.49,16,8.29a62.63,62.63,0,0,1,7.63,8.25c8.61,11.25,8.7,12.12,13.07,16C155.42,110.38,159.23,110.1,162,112.1Z" id="HairsShadow"/>
<path class="cls-2" d="M194.12,170.77c-.46,1.23-9.21.9-16.82-3.88-8.86-5.57-15.48-16.77-15.85-28.46-.38-12.3,6.4-17.21,2.58-23.92a7.66,7.66,0,0,0-2-2.41h0c-2.74-2-6.55-1.72-12.8-7.28-4.37-3.89-4.46-4.76-13.07-16a62.63,62.63,0,0,0-7.63-8.25c-10.6-9.78-14.76-8.77-16-8.29-2.63,1-3.93,3.69-5,6.34-3.49,8.93-3.38,15.2-3.31,21,0,4.92.06,9.46-2.2,14.94-4.8,11.62-13.37,11.95-13.85,22.25-.29,5.79,2.36,7.06,2.21,14.61,0,2.54-.24,12-6.16,18.33-9.89,10.57-29.78,6.25-30,4s18.37-2,22-11.64c2.94-7.85-8-13.77-6.47-27.17.79-6.84,3.91-7.39,6.47-15.83,3.77-12.5-1.27-17.2-.41-28.75,1.49-20.18,19-37.37,34.69-44a49.45,49.45,0,0,1,15.19-3.88c20.88-1.78,36.58,11,42.34,16.49,4.21,4,14.76,14.08,16.49,28.77a63,63,0,0,1-1,19.73c-2.79,15.18-7.7,16.87-8.73,29.1-.41,4.87-1.2,14.34,4.21,22.3C184.78,167.44,194.6,169.44,194.12,170.77Z" id="Hairs"/>
</g>
</svg>