<svg width="737" height="758" viewBox="0 0 737 758" fill="none" xmlns="http://www.w3.org/2000/svg">
	<rect width="737" height="758" rx="94" fill="#EA8023" />
	<path
		d="M568 312C568 422.457 478.457 512 368 512C257.543 512 168 422.457 168 312C168 201.543 257.543 112 368 112C478.457 112 568 201.543 568 312ZM280.793 312C280.793 360.163 319.837 399.207 368 399.207C416.163 399.207 455.207 360.163 455.207 312C455.207 263.837 416.163 224.793 368 224.793C319.837 224.793 280.793 263.837 280.793 312Z"
		fill="white" />
	<rect x="186" y="538" width="365" height="109" rx="8" fill="white" />
</svg>